<mxfile host="65bd71144e">
    <diagram id="wKKiUWEgryos_iY61zEp" name="Page-1">
        <mxGraphModel dx="1186" dy="668" grid="1" gridSize="10" guides="1" tooltips="1" connect="1" arrows="1" fold="1" page="1" pageScale="1" pageWidth="850" pageHeight="1100" math="0" shadow="0">
            <root>
                <mxCell id="0"/>
                <mxCell id="1" parent="0"/>
                <mxCell id="2" value="Отталкивание" style="swimlane;" vertex="1" parent="1">
                    <mxGeometry x="60" y="40" width="200" height="200" as="geometry"/>
                </mxCell>
                <mxCell id="7" value="Мультипликатор" style="whiteSpace=wrap;html=1;" vertex="1" parent="2">
                    <mxGeometry x="10" y="30" width="180" height="20" as="geometry"/>
                </mxCell>
                <mxCell id="8" value="Максимальное расстояние обработки" style="whiteSpace=wrap;html=1;" vertex="1" parent="2">
                    <mxGeometry x="10" y="60" width="180" height="30" as="geometry"/>
                </mxCell>
                <mxCell id="9" value="Минимальное расстояние обработки" style="whiteSpace=wrap;html=1;" vertex="1" parent="2">
                    <mxGeometry x="10" y="100" width="180" height="30" as="geometry"/>
                </mxCell>
                <mxCell id="4" value="Притягивание" style="swimlane;" vertex="1" parent="1">
                    <mxGeometry x="530" y="50" width="200" height="200" as="geometry"/>
                </mxCell>
                <mxCell id="6" value="Регулятор" style="swimlane;" vertex="1" parent="1">
                    <mxGeometry x="425" y="290" width="200" height="200" as="geometry"/>
                </mxCell>
            </root>
        </mxGraphModel>
    </diagram>
</mxfile>